<svg width="760" height="640" viewBox="0 0 760 640" fill="none" xmlns="http://www.w3.org/2000/svg">
  <rect width="760" height="640" rx="42" fill="#F7FBF9"/>
  <rect x="44" y="40" width="672" height="360" rx="30" fill="#E8F6FB"/>
  <rect x="76" y="72" width="280" height="296" rx="24" fill="#FDFEFE"/>
  <rect x="376" y="72" width="308" height="296" rx="24" fill="#FDFEFE"/>
  <rect x="92" y="88" width="248" height="264" rx="18" fill="url(#paint0_linear_1_4)"/>
  <rect x="392" y="88" width="276" height="264" rx="18" fill="url(#paint1_linear_1_4)"/>
  <rect x="0" y="388" width="760" height="252" fill="#DDF1EA"/>
  <ellipse cx="234" cy="452" rx="186" ry="26" fill="#CBE4DC"/>
  <ellipse cx="573" cy="503" rx="106" ry="20" fill="#C7E2E7"/>
  <rect x="142" y="364" width="260" height="132" rx="48" fill="#FFFDFB"/>
  <rect x="168" y="340" width="92" height="42" rx="18" fill="#FFFDFB"/>
  <rect x="224" y="340" width="120" height="42" rx="18" fill="#FFFDFB"/>
  <rect x="174" y="392" width="196" height="68" rx="32" fill="#F0F8F5"/>
  <rect x="112" y="382" width="36" height="102" rx="18" fill="#FFFDFB"/>
  <rect x="396" y="410" width="150" height="40" rx="20" fill="#FFFDFB"/>
  <rect x="416" y="450" width="18" height="60" rx="9" fill="#FFFDFB"/>
  <rect x="506" y="450" width="18" height="60" rx="9" fill="#FFFDFB"/>
  <path d="M537 360C573.451 360 603 389.549 603 426V500H471V426C471 389.549 500.549 360 537 360Z" fill="#BEE4E7"/>
  <path d="M537 375C565.167 375 588 397.833 588 426V485H486V426C486 397.833 508.833 375 537 375Z" fill="#FFFDFB"/>
  <rect x="570" y="184" width="40" height="118" rx="20" fill="#8FC6B8"/>
  <path d="M590 168C613.196 168 632 186.804 632 210V218H548V210C548 186.804 566.804 168 590 168Z" fill="#A4D7C9"/>
  <path d="M616 129L618.472 136.528L626 139L618.472 141.472L616 149L613.528 141.472L606 139L613.528 136.528L616 129Z" fill="#8BC7D5"/>
  <path d="M138 128L140.472 135.528L148 138L140.472 140.472L138 148L135.528 140.472L128 138L135.528 135.528L138 128Z" fill="#8BC7D5"/>
  <defs>
    <linearGradient id="paint0_linear_1_4" x1="216" y1="88" x2="216" y2="352" gradientUnits="userSpaceOnUse">
      <stop stop-color="#D9F0F3"/>
      <stop offset="1" stop-color="#F9FCFD"/>
    </linearGradient>
    <linearGradient id="paint1_linear_1_4" x1="530" y1="88" x2="530" y2="352" gradientUnits="userSpaceOnUse">
      <stop stop-color="#DEF2EB"/>
      <stop offset="1" stop-color="#F9FCFD"/>
    </linearGradient>
  </defs>
</svg>
