<svg width="700" height="760" viewBox="0 0 700 760" fill="none" xmlns="http://www.w3.org/2000/svg">
  <rect width="700" height="760" rx="42" fill="#F8FCFA"/>
  <rect x="46" y="42" width="608" height="310" rx="30" fill="#E6F5FB"/>
  <rect x="80" y="76" width="180" height="242" rx="22" fill="#FDFEFE"/>
  <rect x="278" y="76" width="342" height="242" rx="22" fill="#FDFEFE"/>
  <rect x="96" y="92" width="148" height="210" rx="16" fill="url(#paint0_linear_1_6)"/>
  <rect x="294" y="92" width="310" height="210" rx="16" fill="url(#paint1_linear_1_6)"/>
  <rect x="0" y="340" width="700" height="420" fill="#EAF5F0"/>
  <ellipse cx="328" cy="514" rx="246" ry="28" fill="#D8EBE4"/>
  <ellipse cx="558" cy="554" rx="92" ry="18" fill="#D1E8EC"/>
  <rect x="124" y="376" width="226" height="128" rx="46" fill="#FFFDFB"/>
  <rect x="148" y="350" width="84" height="40" rx="16" fill="#FFFDFB"/>
  <rect x="214" y="350" width="106" height="40" rx="16" fill="#FFFDFB"/>
  <rect x="464" y="414" width="140" height="48" rx="24" fill="#FFFDFB"/>
  <rect x="487" y="462" width="22" height="74" rx="11" fill="#FFFDFB"/>
  <rect x="560" y="462" width="22" height="74" rx="11" fill="#FFFDFB"/>
  <rect x="148" y="414" width="180" height="60" rx="30" fill="#EEF8F5"/>
  <rect x="94" y="396" width="32" height="96" rx="16" fill="#FFFDFB"/>
  <rect x="374" y="390" width="58" height="122" rx="29" fill="#9ED2C5"/>
  <path d="M403 362C431.719 362 455 385.281 455 414V424H351V414C351 385.281 374.281 362 403 362Z" fill="#B8E2D7"/>
  <rect x="82" y="564" width="536" height="92" rx="32" fill="#FFFFFF" fill-opacity="0.82"/>
  <circle cx="150" cy="610" r="16" fill="#BEE4E7"/>
  <rect x="184" y="596" width="138" height="12" rx="6" fill="#D8ECE6"/>
  <rect x="184" y="618" width="184" height="12" rx="6" fill="#E8F3F0"/>
  <rect x="416" y="590" width="136" height="40" rx="20" fill="#DFF3EC"/>
  <path d="M566 132L568.236 138.764L575 141L568.236 143.236L566 150L563.764 143.236L557 141L563.764 138.764L566 132Z" fill="#7ABED0"/>
  <defs>
    <linearGradient id="paint0_linear_1_6" x1="170" y1="92" x2="170" y2="302" gradientUnits="userSpaceOnUse">
      <stop stop-color="#D5EEF1"/>
      <stop offset="1" stop-color="#FDFEFE"/>
    </linearGradient>
    <linearGradient id="paint1_linear_1_6" x1="449" y1="92" x2="449" y2="302" gradientUnits="userSpaceOnUse">
      <stop stop-color="#E4F5EE"/>
      <stop offset="1" stop-color="#FDFEFE"/>
    </linearGradient>
  </defs>
</svg>
